<svg width="537" height="386" viewBox="0 0 537 386" fill="none" xmlns="http://www.w3.org/2000/svg">
<path d="M-172.602 208.089C-314.145 36.9292 -82.5017 17.6911 5.35737 -77.6762C93.2062 -173.032 167.714 -277.501 292.878 -243.676C429.481 -206.76 560.807 10.6606 441.518 86.776C356.458 141.051 308.166 3.8736 189.107 31.5876C85.2731 55.7576 200.283 493.944 -172.602 208.089Z" fill="url(#paint0_linear)"/>
<path d="M-172.602 208.089C-314.145 36.9292 -82.5017 17.6911 5.35737 -77.6762C93.2062 -173.032 167.714 -277.501 292.878 -243.676C429.481 -206.76 560.807 10.6606 441.518 86.776C356.458 141.051 308.166 3.8736 189.107 31.5876C85.2731 55.7576 200.283 493.944 -172.602 208.089Z" fill="url(#paint1_linear)" fill-opacity="0.8"/>
<path d="M-172.602 208.089C-314.145 36.9292 -82.5017 17.6911 5.35737 -77.6762C93.2062 -173.032 167.714 -277.501 292.878 -243.676C429.481 -206.76 560.807 10.6606 441.518 86.776C356.458 141.051 308.166 3.8736 189.107 31.5876C85.2731 55.7576 200.283 493.944 -172.602 208.089Z" fill="url(#paint2_linear)"/>
<path d="M-172.602 208.089C-314.145 36.9292 -82.5017 17.6911 5.35737 -77.6762C93.2062 -173.032 167.714 -277.501 292.878 -243.676C429.481 -206.76 560.807 10.6606 441.518 86.776C356.458 141.051 308.166 3.8736 189.107 31.5876C85.2731 55.7576 200.283 493.944 -172.602 208.089Z" fill="url(#paint3_linear)" fill-opacity="0.6"/>
<defs>
<linearGradient id="paint0_linear" x1="-33" y1="120" x2="301.654" y2="130.224" gradientUnits="userSpaceOnUse">
<stop stop-color="#FF0000"/>
<stop offset="1" stop-color="#FF0000" stop-opacity="0"/>
</linearGradient>
<linearGradient id="paint1_linear" x1="57.5" y1="331" x2="46.1883" y2="-2.07247" gradientUnits="userSpaceOnUse">
<stop stop-color="#001AFF"/>
<stop offset="1" stop-color="white" stop-opacity="0"/>
</linearGradient>
<linearGradient id="paint2_linear" x1="469" y1="-8.5" x2="297.595" y2="109.518" gradientUnits="userSpaceOnUse">
<stop stop-color="#00FF38"/>
<stop offset="1" stop-color="white" stop-opacity="0"/>
</linearGradient>
<linearGradient id="paint3_linear" x1="204.5" y1="-2.99998" x2="-0.552324" y2="92.8419" gradientUnits="userSpaceOnUse">
<stop stop-color="#FAFF00"/>
<stop offset="1" stop-color="white" stop-opacity="0"/>
</linearGradient>
</defs>
</svg>
