<svg width="42" height="42" viewBox="0 0 42 42" fill="none" xmlns="http://www.w3.org/2000/svg">
<path d="M21 0C9.45 0 0 9.45 0 21C0 32.55 9.45 42 21 42C32.55 42 42 32.55 42 21C42 9.45 32.6576 0 21 0ZM30.6626 30.3424C30.2453 30.975 29.505 31.1798 28.875 30.7598C23.9374 27.7174 17.7424 27.0847 10.3924 28.7674C9.65475 28.98 9.03 28.455 8.81738 27.825C8.60475 27.0874 9.12975 26.4626 9.75975 26.25C17.7424 24.4624 24.6724 25.2 30.1271 28.5626C30.8648 28.875 30.9724 29.7124 30.66 30.3424H30.6626ZM33.1826 24.5674C32.6576 25.305 31.7153 25.6174 30.975 25.0924C25.3076 21.63 16.6924 20.58 10.0826 22.68C9.24525 22.8926 8.295 22.4674 8.09025 21.63C7.87763 20.7926 8.30288 19.8424 9.14025 19.6376C16.8026 17.325 26.2526 18.48 32.7653 22.4753C33.39 22.7876 33.7076 23.8376 33.1826 24.5674ZM33.3874 18.6874C26.67 14.7 15.4298 14.2747 9.02475 16.275C8.53742 16.4165 8.01424 16.3642 7.56463 16.1289C7.11502 15.8935 6.77381 15.4935 6.61238 15.0124C6.3 13.9624 6.92475 12.9124 7.875 12.6C15.3326 10.3924 27.6124 10.8124 35.3876 15.4376C36.33 15.9626 36.6502 17.2253 36.1253 18.1702C35.5924 18.9 34.3376 19.2124 33.3848 18.6874H33.3874Z" fill="#231E0D"/>
</svg>
