<svg width="1065" height="508" viewBox="0 0 1065 508" fill="none" xmlns="http://www.w3.org/2000/svg">
<path d="M981.983 406.553C1091.48 518.053 1058 507.001 1058 507.001L401.5 507.001L35.4999 507.001C133.817 484.313 183.115 294.604 304.983 285.053C464.483 272.554 474.624 404.972 616.483 423.553C775.573 444.391 872.483 295.053 981.983 406.553Z" fill="url(#paint0_linear)"/>
<path d="M981.983 406.553C1091.48 518.053 1058 507.001 1058 507.001L401.5 507.001L35.4999 507.001C133.817 484.313 183.115 294.604 304.983 285.053C464.483 272.554 474.624 404.972 616.483 423.553C775.573 444.391 872.483 295.053 981.983 406.553Z" fill="url(#paint1_linear)" fill-opacity="0.6"/>
<path d="M981.983 406.553C1091.48 518.053 1058 507.001 1058 507.001L401.5 507.001L35.4999 507.001C133.817 484.313 183.115 294.604 304.983 285.053C464.483 272.554 474.624 404.972 616.483 423.553C775.573 444.391 872.483 295.053 981.983 406.553Z" fill="url(#paint2_linear)" fill-opacity="0.7"/>
<path d="M981.983 406.553C1091.48 518.053 1058 507.001 1058 507.001L401.5 507.001L35.4999 507.001C133.817 484.313 183.115 294.604 304.983 285.053C464.483 272.554 474.624 404.972 616.483 423.553C775.573 444.391 872.483 295.053 981.983 406.553Z" fill="url(#paint3_linear)" fill-opacity="0.6"/>
<defs>
<linearGradient id="paint0_linear" x1="419.5" y1="319" x2="358.5" y2="637.5" gradientUnits="userSpaceOnUse">
<stop stop-color="#FF0000"/>
<stop offset="1" stop-color="#FF0000" stop-opacity="0"/>
</linearGradient>
<linearGradient id="paint1_linear" x1="971.5" y1="451" x2="388" y2="736" gradientUnits="userSpaceOnUse">
<stop stop-color="#001AFF"/>
<stop offset="1" stop-color="white" stop-opacity="0"/>
</linearGradient>
<linearGradient id="paint2_linear" x1="-93.5" y1="451" x2="449" y2="390.5" gradientUnits="userSpaceOnUse">
<stop stop-color="#00FF38"/>
<stop offset="1" stop-color="white" stop-opacity="0"/>
</linearGradient>
<linearGradient id="paint3_linear" x1="344.5" y1="259.5" x2="426.5" y2="442" gradientUnits="userSpaceOnUse">
<stop stop-color="#FAFF00"/>
<stop offset="1" stop-color="white" stop-opacity="0"/>
</linearGradient>
</defs>
</svg>
