<svg width="156" height="704" viewBox="0 0 156 704" fill="none" xmlns="http://www.w3.org/2000/svg">
<path d="M156 699C-63 736 89.727 533.135 51.0661 409.364C12.4097 285.606 -40.8093 168.847 51.066 77.3641C151.338 -22.4797 156 2.99999 156 2.99999L156 301L156 699Z" fill="url(#paint0_linear)"/>
<path d="M156 699C-63 736 89.727 533.135 51.0661 409.364C12.4097 285.606 -40.8093 168.847 51.066 77.3641C151.338 -22.4797 156 2.99999 156 2.99999L156 301L156 699Z" fill="url(#paint1_linear)" fill-opacity="0.8"/>
<path d="M156 699C-63 736 89.727 533.135 51.0661 409.364C12.4097 285.606 -40.8093 168.847 51.066 77.3641C151.338 -22.4797 156 2.99999 156 2.99999L156 301L156 699Z" fill="url(#paint2_linear)" fill-opacity="0.7"/>
<path d="M156 699C-63 736 89.727 533.135 51.0661 409.364C12.4097 285.606 -40.8093 168.847 51.066 77.3641C151.338 -22.4797 156 2.99999 156 2.99999L156 301L156 699Z" fill="url(#paint3_linear)" fill-opacity="0.6"/>
<defs>
<linearGradient id="paint0_linear" x1="-1.20608e-05" y1="333.5" x2="-28.332" y2="140.807" gradientUnits="userSpaceOnUse">
<stop stop-color="#FF0000"/>
<stop offset="1" stop-color="#FF0000" stop-opacity="0"/>
</linearGradient>
<linearGradient id="paint1_linear" x1="-14.5" y1="703" x2="20.658" y2="297.321" gradientUnits="userSpaceOnUse">
<stop stop-color="#001AFF"/>
<stop offset="1" stop-color="white" stop-opacity="0"/>
</linearGradient>
<linearGradient id="paint2_linear" x1="29" y1="233" x2="170.793" y2="320.939" gradientUnits="userSpaceOnUse">
<stop stop-color="#00FF38"/>
<stop offset="1" stop-color="white" stop-opacity="0"/>
</linearGradient>
<linearGradient id="paint3_linear" x1="156" y1="126" x2="-9.0849" y2="391.287" gradientUnits="userSpaceOnUse">
<stop stop-color="#FAFF00"/>
<stop offset="1" stop-color="white" stop-opacity="0"/>
</linearGradient>
</defs>
</svg>
